<svg width="23" height="13" viewBox="0 0 23 13" fill="none" xmlns="http://www.w3.org/2000/svg">
<path d="M5.48171 12.2131C8.18058 12.2131 9.99876 10.8991 10.4249 8.875L7.6266 8.69034C7.3212 9.52131 6.53995 9.95455 5.53143 9.95455C4.01864 9.95455 3.05984 8.95312 3.05984 7.3267V7.3196H10.4888V6.48864C10.4888 2.78125 8.2445 0.948864 5.36097 0.948864C2.15075 0.948864 0.0697798 3.22869 0.0697798 6.59517C0.0697798 10.054 2.12234 12.2131 5.48171 12.2131ZM3.05984 5.4446C3.12376 4.2017 4.06836 3.20739 5.41069 3.20739C6.72461 3.20739 7.6337 4.14489 7.6408 5.4446H3.05984ZM15.4888 5.69318C15.4959 4.28693 16.334 3.46307 17.5556 3.46307C18.7701 3.46307 19.5016 4.25852 19.4945 5.59375V12H22.5201V5.05398C22.5201 2.51136 21.0286 0.948864 18.7559 0.948864C17.1365 0.948864 15.9647 1.74432 15.4746 3.01562H15.3468V1.09091H12.4632V12H15.4888V5.69318Z" fill="#BDAE82"/>
</svg>
