<svg width="20" height="13" viewBox="0 0 20 13" fill="none" xmlns="http://www.w3.org/2000/svg">
<path d="M0.894886 12H3.92045V5.82812C3.92045 4.4858 4.90057 3.5625 6.2358 3.5625C6.65483 3.5625 7.23011 3.63352 7.5142 3.72585V1.04119C7.24432 0.977273 6.8679 0.934659 6.5625 0.934659C5.34091 0.934659 4.33949 1.64489 3.94176 2.99432H3.82812V1.09091H0.894886V12ZM16.0742 7.35511C16.0813 8.81818 15.0799 9.58523 13.9933 9.58523C12.8498 9.58523 12.1112 8.78267 12.104 7.49716V1.09091H9.07848V8.03693C9.08558 10.5866 10.5771 12.142 12.7717 12.142C14.4123 12.142 15.5913 11.2969 16.0813 10.0185H16.195V12H19.0998V1.09091H16.0742V7.35511Z" fill="white"/>
</svg>
