<svg width="16" height="16" viewBox="0 0 16 16" fill="none" xmlns="http://www.w3.org/2000/svg">
<path d="M4 7.72727C4 6.95076 4.18939 6.2429 4.56818 5.60369C4.94697 4.96449 5.45597 4.45549 6.09517 4.0767C6.73438 3.69792 7.44223 3.50852 8.21875 3.50852C8.8911 3.50852 9.51136 3.65294 10.0795 3.94176C10.6525 4.23059 11.1259 4.62595 11.5 5.12784C11.8741 5.625 12.1061 6.18845 12.196 6.81818H10.4773C10.3826 6.33049 10.1198 5.93277 9.68892 5.625C9.25805 5.3125 8.76799 5.15625 8.21875 5.15625C7.74527 5.15625 7.31439 5.27225 6.92614 5.50426C6.53788 5.73627 6.22775 6.0464 5.99574 6.43466C5.76373 6.82292 5.64773 7.25379 5.64773 7.72727C5.64773 8.20076 5.76373 8.63163 5.99574 9.01989C6.22775 9.40814 6.53788 9.71828 6.92614 9.95028C7.31439 10.1823 7.74527 10.2983 8.21875 10.2983C8.76799 10.2983 9.23201 10.1444 9.6108 9.83665C9.99432 9.52415 10.2358 9.12405 10.3352 8.63636H12.054C11.964 9.2661 11.7438 9.83191 11.3935 10.3338C11.0431 10.831 10.5933 11.224 10.044 11.5128C9.49953 11.8016 8.8911 11.946 8.21875 11.946C7.44223 11.946 6.73438 11.7566 6.09517 11.3778C5.45597 10.9991 4.94697 10.4901 4.56818 9.85085C4.18939 9.21165 4 8.50379 4 7.72727ZM8.14773 15.2273C7.11553 15.2273 6.14489 15.0331 5.2358 14.6449C4.33144 14.2566 3.53362 13.7192 2.84233 13.0327C2.15578 12.3414 1.616 11.5436 1.22301 10.6392C0.834754 9.73485 0.642992 8.7642 0.647727 7.72727C0.652462 6.69034 0.848958 5.7197 1.23722 4.81534C1.63021 3.91098 2.16998 3.11553 2.85653 2.42898C3.54309 1.73769 4.33854 1.19792 5.2429 0.809659C6.14725 0.421401 7.11553 0.227273 8.14773 0.227273C9.18466 0.227273 10.1553 0.421401 11.0597 0.809659C11.9688 1.19792 12.7642 1.73769 13.446 2.42898C14.1326 3.11553 14.67 3.91098 15.0582 4.81534C15.4465 5.7197 15.643 6.69034 15.6477 7.72727C15.6525 8.7642 15.4607 9.73485 15.0724 10.6392C14.6842 11.5436 14.1468 12.3414 13.4602 13.0327C12.7737 13.7192 11.9759 14.2566 11.0668 14.6449C10.1577 15.0331 9.18466 15.2273 8.14773 15.2273ZM8.14773 13.5795C8.95739 13.5795 9.71733 13.428 10.4276 13.125C11.1378 12.822 11.7604 12.4029 12.2955 11.8679C12.8305 11.3329 13.2495 10.7126 13.5526 10.0071C13.8556 9.29687 14.0047 8.5393 14 7.73438C13.9953 6.92472 13.8414 6.16477 13.5384 5.45455C13.2353 4.74432 12.8163 4.12169 12.2812 3.58665C11.7462 3.05161 11.1259 2.63258 10.4205 2.32955C9.71496 2.02652 8.95739 1.875 8.14773 1.875C7.3428 1.875 6.58759 2.02652 5.8821 2.32955C5.17661 2.63258 4.55634 3.05398 4.02131 3.59375C3.48627 4.12879 3.06487 4.75142 2.7571 5.46165C2.45407 6.16714 2.30019 6.92472 2.29545 7.73438C2.29072 8.53456 2.43987 9.28977 2.7429 10C3.04593 10.7055 3.46496 11.3258 4 11.8608C4.53977 12.3958 5.16241 12.8172 5.8679 13.125C6.57813 13.428 7.33807 13.5795 8.14773 13.5795Z" fill="white"/>
</svg>
